<svg version="1.1" id="Layer_1" xmlns="http://www.w3.org/2000/svg" xmlns:xlink="http://www.w3.org/1999/xlink" x="0px" y="0px"
	 width="100%" viewBox="0 0 512 512" enable-background="new 0 0 512 512" xml:space="preserve">
<path fill="#FFCA28" opacity="1.000000" stroke="none" 
	d="
M235.000000,1.000000 
	C249.354233,1.000000 263.708466,1.000000 278.746429,1.366342 
	C287.386780,2.802839 295.358765,3.770346 303.297058,4.962502 
	C326.614716,8.464295 348.645386,16.130402 369.736481,26.418974 
	C389.555481,36.087009 407.837616,48.138012 424.430939,62.804272 
	C440.209076,76.750023 454.481201,91.948502 466.704620,109.120354 
	C479.508728,127.108063 489.789703,146.442734 497.442383,167.082413 
	C504.098053,185.033127 508.972870,203.515213 511.041351,222.645691 
	C511.489014,226.785980 512.336609,230.883026 513.000000,235.000000 
	C513.000000,249.354233 513.000000,263.708466 512.633667,278.746399 
	C511.197205,287.386658 510.229706,295.358612 509.037567,303.296814 
	C505.535706,326.614471 497.869720,348.645203 487.581177,369.736298 
	C477.913177,389.555359 465.862152,407.837555 451.195831,424.430817 
	C437.250000,440.208893 422.051636,454.481262 404.879730,466.704651 
	C386.891968,479.508728 367.557251,489.789642 346.917572,497.442383 
	C328.966858,504.098083 310.484772,508.972900 291.354309,511.041473 
	C287.214020,511.489136 283.116974,512.336670 279.000000,513.000000 
	C264.645782,513.000000 250.291550,513.000000 235.253571,512.633667 
	C226.613190,511.197205 218.641159,510.229706 210.702850,509.037537 
	C187.385193,505.535675 165.354538,497.869537 144.263458,487.580994 
	C124.444435,477.912994 106.162285,465.861969 89.569016,451.195679 
	C73.790894,437.249908 59.518730,422.051483 47.295357,404.879608 
	C34.491219,386.891907 24.210318,367.557190 16.557592,346.917542 
	C9.901889,328.966858 5.027124,310.484772 2.958618,291.354309 
	C2.510944,287.213989 1.663377,283.116974 1.000001,279.000000 
	C1.000000,264.645782 1.000000,250.291550 1.366347,235.253571 
	C2.802845,226.613205 3.770339,218.641190 4.962498,210.702896 
	C8.464310,187.385239 16.130386,165.354568 26.418966,144.263489 
	C36.087002,124.444481 48.138039,106.162346 62.804306,89.569038 
	C76.750061,73.790909 91.948540,59.518749 109.120399,47.295353 
	C127.108101,34.491226 146.442810,24.210310 167.082474,16.557587 
	C185.033142,9.901875 203.515244,5.027117 222.645721,2.958618 
	C226.785995,2.510947 230.883041,1.663376 235.000000,1.000000 
M322.132751,437.638763 
	C354.022003,425.791168 381.087158,407.010742 403.153320,381.104736 
	C421.015350,360.134430 433.661469,336.334290 441.131226,309.837860 
	C443.904083,300.002106 438.111053,291.296204 428.039948,289.623505 
	C425.920471,289.271484 423.731476,289.228119 421.574463,289.227783 
	C311.612488,289.209869 201.650497,289.212067 91.688515,289.212463 
	C90.688873,289.212463 89.688065,289.187866 88.689758,289.225952 
	C75.683304,289.721558 68.938171,299.379974 72.704575,311.856659 
	C84.206192,349.957367 105.029045,382.017303 136.400742,406.464447 
	C192.252563,449.988281 254.177826,460.116028 322.132751,437.638763 
M183.966782,171.548279 
	C189.906860,177.776062 192.034073,185.463348 192.855972,193.794693 
	C193.873489,204.109192 200.907532,209.992523 210.618286,209.059341 
	C219.289261,208.226089 225.215607,200.590149 224.659042,190.944733 
	C223.721375,174.694107 217.899017,160.536636 206.511002,148.789200 
	C188.223587,129.924637 160.455505,124.192131 136.071152,134.225128 
	C112.720940,143.832626 96.807549,167.468445 96.834648,192.502243 
	C96.844391,201.501648 102.606094,208.321289 110.832001,209.069733 
	C119.937286,209.898163 126.908890,204.464218 128.481766,195.200241 
	C128.981857,192.254776 128.947769,189.201172 129.623596,186.305710 
	C135.412460,161.504486 165.722321,153.142334 183.966782,171.548279 
M365.256500,164.009827 
	C378.542786,170.106461 384.012634,181.031296 384.998535,195.074890 
	C385.565002,203.144379 392.048370,208.853943 399.907318,209.131180 
	C408.220215,209.424408 414.985687,204.296646 416.211517,196.108582 
	C416.766785,192.399490 416.399323,188.479431 415.976501,184.708221 
	C412.410645,152.903503 381.615326,127.064957 350.137970,129.358215 
	C314.780212,131.934174 288.135406,159.705673 288.832977,193.255585 
	C289.035736,203.008942 296.367889,209.745499 306.076385,209.098297 
	C314.390137,208.544052 320.472504,202.345474 320.745575,192.480560 
	C321.325012,171.546722 342.649475,155.312729 365.256500,164.009827 
z"/>
<path fill="#FFFFFF" opacity="1.000000" stroke="none" 
	d="
M234.531342,1.000000 
	C230.883041,1.663376 226.785995,2.510947 222.645721,2.958618 
	C203.515244,5.027117 185.033142,9.901875 167.082474,16.557587 
	C146.442810,24.210310 127.108101,34.491226 109.120399,47.295353 
	C91.948540,59.518749 76.750061,73.790909 62.804306,89.569038 
	C48.138039,106.162346 36.087002,124.444481 26.418966,144.263489 
	C16.130386,165.354568 8.464310,187.385239 4.962498,210.702896 
	C3.770339,218.641190 2.802845,226.613205 1.366347,234.784912 
	C1.000000,157.072952 1.000000,79.145912 1.000000,1.000000 
	C78.687424,1.000000 156.375061,1.000000 234.531342,1.000000 
z"/>
<path fill="#FFFFFF" opacity="1.000000" stroke="none" 
	d="
M513.000000,234.531342 
	C512.336609,230.883026 511.489014,226.785980 511.041351,222.645691 
	C508.972870,203.515213 504.098053,185.033127 497.442383,167.082413 
	C489.789703,146.442734 479.508728,127.108063 466.704620,109.120354 
	C454.481201,91.948502 440.209076,76.750023 424.430939,62.804272 
	C407.837616,48.138012 389.555481,36.087009 369.736481,26.418974 
	C348.645386,16.130402 326.614716,8.464295 303.297058,4.962502 
	C295.358765,3.770346 287.386780,2.802839 279.215088,1.366342 
	C356.927032,1.000000 434.854095,1.000000 513.000000,1.000000 
	C513.000000,78.687424 513.000000,156.375061 513.000000,234.531342 
z"/>
<path fill="#FFFFFF" opacity="1.000000" stroke="none" 
	d="
M1.000001,279.468658 
	C1.663377,283.116974 2.510944,287.213989 2.958618,291.354309 
	C5.027124,310.484772 9.901889,328.966858 16.557592,346.917542 
	C24.210318,367.557190 34.491219,386.891907 47.295357,404.879608 
	C59.518730,422.051483 73.790894,437.249908 89.569016,451.195679 
	C106.162285,465.861969 124.444435,477.912994 144.263458,487.580994 
	C165.354538,497.869537 187.385193,505.535675 210.702850,509.037537 
	C218.641159,510.229706 226.613190,511.197205 234.784912,512.633667 
	C157.072968,513.000000 79.145927,513.000000 1.000000,513.000000 
	C1.000000,435.312561 1.000000,357.624939 1.000001,279.468658 
z"/>
<path fill="#FFFFFF" opacity="1.000000" stroke="none" 
	d="
M279.468658,513.000000 
	C283.116974,512.336670 287.214020,511.489136 291.354309,511.041473 
	C310.484772,508.972900 328.966858,504.098083 346.917572,497.442383 
	C367.557251,489.789642 386.891968,479.508728 404.879730,466.704651 
	C422.051636,454.481262 437.250000,440.208893 451.195831,424.430817 
	C465.862152,407.837555 477.913177,389.555359 487.581177,369.736298 
	C497.869720,348.645203 505.535706,326.614471 509.037567,303.296814 
	C510.229706,295.358612 511.197205,287.386658 512.633667,279.215088 
	C513.000000,356.927032 513.000000,434.854095 513.000000,513.000000 
	C435.312561,513.000000 357.624939,513.000000 279.468658,513.000000 
z"/>
<path fill="#FAFAF9" opacity="1.000000" stroke="none" 
	d="
M321.767151,437.776550 
	C254.177826,460.116028 192.252563,449.988281 136.400742,406.464447 
	C105.029045,382.017303 84.206192,349.957367 72.704575,311.856659 
	C68.938171,299.379974 75.683304,289.721558 88.689758,289.225952 
	C89.688065,289.187866 90.688873,289.212463 91.688515,289.212463 
	C201.650497,289.212067 311.612488,289.209869 421.574463,289.227783 
	C423.731476,289.228119 425.920471,289.271484 428.039948,289.623505 
	C438.111053,291.296204 443.904083,300.002106 441.131226,309.837860 
	C433.661469,336.334290 421.015350,360.134430 403.153320,381.104736 
	C381.087158,407.010742 354.022003,425.791168 321.767151,437.776550 
z"/>
<path fill="#6E4D41" opacity="1.000000" stroke="none" 
	d="
M183.728943,171.282623 
	C165.722321,153.142334 135.412460,161.504486 129.623596,186.305710 
	C128.947769,189.201172 128.981857,192.254776 128.481766,195.200241 
	C126.908890,204.464218 119.937286,209.898163 110.832001,209.069733 
	C102.606094,208.321289 96.844391,201.501648 96.834648,192.502243 
	C96.807549,167.468445 112.720940,143.832626 136.071152,134.225128 
	C160.455505,124.192131 188.223587,129.924637 206.511002,148.789200 
	C217.899017,160.536636 223.721375,174.694107 224.659042,190.944733 
	C225.215607,200.590149 219.289261,208.226089 210.618286,209.059341 
	C200.907532,209.992523 193.873489,204.109192 192.855972,193.794693 
	C192.034073,185.463348 189.906860,177.776062 183.728943,171.282623 
z"/>
<path fill="#6E4D41" opacity="1.000000" stroke="none" 
	d="
M364.893616,163.871704 
	C342.649475,155.312729 321.325012,171.546722 320.745575,192.480560 
	C320.472504,202.345474 314.390137,208.544052 306.076385,209.098297 
	C296.367889,209.745499 289.035736,203.008942 288.832977,193.255585 
	C288.135406,159.705673 314.780212,131.934174 350.137970,129.358215 
	C381.615326,127.064957 412.410645,152.903503 415.976501,184.708221 
	C416.399323,188.479431 416.766785,192.399490 416.211517,196.108582 
	C414.985687,204.296646 408.220215,209.424408 399.907318,209.131180 
	C392.048370,208.853943 385.565002,203.144379 384.998535,195.074890 
	C384.012634,181.031296 378.542786,170.106461 364.893616,163.871704 
z"/>
</svg>